<?xml version="1.0" encoding="UTF-8" standalone="no"?>
<!-- Created with Inkscape (http://www.inkscape.org/) -->
<svg
   xmlns:svg="http://www.w3.org/2000/svg"
   xmlns="http://www.w3.org/2000/svg"
   version="1.0"
   width="300"
   height="200"
   id="svg5495">
  <defs
     id="defs3" />
  <g
     transform="translate(-16.868021,-18.140327)"
     id="layer1">
    <g
       transform="translate(10,10.185768)"
       id="g5528">
      <path
         d="M 65.492225,99.420604 C 65.150135,99.420604 57.095787,99.39922 53.711464,99.573313 C 36.335109,100.49878 25.015426,107.00768 18.091217,120.05908 C 16.344195,123.37003 16.478544,127.67978 18.430137,131.04267 C 19.719253,133.2632 22.959961,137.02926 30.174324,137.26139 C 35.999115,137.45381 39.331503,137.39578 45.727338,137.26446 C 52.09562,137.13006 57.572225,133.40065 60.513514,131.39697 L 61.551975,130.71279 C 61.631463,130.84719 61.701685,130.98156 61.781173,131.11901 C 64.187992,135.02863 68.375483,137.21252 73.571199,137.26446 C 73.577295,137.26446 79.533265,137.26751 79.533265,137.26751 L 82.361662,137.26446 C 83.22603,137.26446 84.044558,137.14228 84.832608,136.97428 L 94.94559,136.97428 C 92.58461,143.09832 90.440392,148.77033 90.284587,149.18571 L 88.143539,154.86994 L 105.26656,154.86994 L 106.28039,152.1271 C 106.32623,152.01104 109.26777,144.07268 112.00448,137.03231 L 142.68869,136.97428 L 164.3903,136.97428 C 163.95945,138.05248 163.6693,138.79469 163.52593,139.19177 C 161.60774,144.35062 160.79823,148.68479 160.79823,152.56691 C 160.79823,159.53704 163.38524,165.05936 166.77566,171.29641 C 169.66209,176.58968 179.59196,191.86466 180.01963,192.51524 L 183.43736,197.76879 L 199.16739,174.92503 L 224.6532,174.92503 L 238.44383,157.93348 L 206.36371,157.93348 L 196.25975,170.34956 C 193.31212,168.14124 182.44473,159.87912 177.9944,155.154 C 177.19733,154.29877 176.79111,152.90596 176.79111,151.12526 C 176.79111,149.34454 177.19733,147.17594 178.00049,144.77824 C 178.51375,143.26327 181.45821,135.96023 185.68227,125.6425 C 185.89928,127.55759 186.52543,129.46659 187.5517,131.14039 C 189.95852,135.05611 194.14918,137.23695 199.34758,137.28277 C 199.34148,137.28277 205.30379,137.28277 205.30379,137.28277 L 270.29182,137.26446 C 278.80139,137.10868 283.92372,134.22532 286.41295,128.18986 C 287.18881,126.31751 287.57674,124.42685 287.57674,122.60644 C 287.57674,120.33399 286.96888,118.18063 285.77461,116.33273 C 285.31939,115.63634 284.77273,115.01019 284.18632,114.43903 C 285.32865,114.44512 286.40686,114.45124 287.34754,114.45734 L 290.05378,114.46955 L 296.86802,99.61608 L 290.37441,99.567217 C 289.47957,99.561097 268.27293,99.408388 262.37792,99.570265 C 258.71271,99.674111 254.49157,100.1842 250.87829,102.44138 L 267.2313,62.954277 L 249.96808,62.954277 L 232.05409,106.26242 C 231.88902,105.94781 231.70883,105.63627 231.51352,105.34 C 229.79064,102.74682 226.07057,99.64968 218.15349,99.594697 C 210.44416,99.536666 201.09484,99.613033 196.36971,99.664943 C 210.44416,65.568838 227.47867,24.62172 227.75054,23.96502 L 230.20003,18.140327 L 213.82848,18.384666 L 212.81441,20.825109 C 211.6294,23.66265 193.81928,66.408798 179.97062,99.814605 L 136.54644,99.814605 C 122.22743,99.814605 112.93907,106.55258 107.31593,113.02178 C 107.3525,112.6064 107.37713,112.19403 107.37713,111.78782 C 107.37713,109.44815 106.76317,107.29174 105.54135,105.45606 C 103.85236,102.91482 100.19934,99.869588 92.373943,99.814605 L 65.492225,99.420604 z"
         id="path1296"
         style="fill:#ffffff;fill-rule:nonzero;stroke:none" />
      <path
         d="M 65.534163,103.65306 C 65.534163,103.65306 57.296457,103.63167 53.97943,103.81189 C 37.262628,104.69461 27.76653,110.9561 21.880782,122.05573 C 19.932114,125.73628 21.492852,132.79803 30.38426,133.08514 C 36.108106,133.27144 39.281519,133.21953 45.69881,133.08514 C 51.966391,132.95074 57.488836,128.27142 59.736924,126.93971 L 52.730059,123.99832 C 50.808943,125.1529 48.768596,126.47849 45.335507,126.60676 C 41.306748,126.75338 35.341513,126.66175 31.636557,126.49682 C 28.976157,126.37464 29.189993,123.92503 30.170423,122.34591 C 34.455688,115.45215 40.23147,110.79115 51.532866,110.49183 L 62.281263,110.29023 L 65.534163,103.65306"
         id="path1300"
         style="fill:#0e2b57;fill-rule:nonzero;stroke:none" />
      <path
         d="M 148.99285,132.79649 L 157.11742,132.79649 L 164.82358,114.22887 L 156.68072,114.22887 L 148.99285,132.79649 z"
         id="path1304"
         style="fill:#0e2b57;fill-rule:nonzero;stroke:none" />
      <path
         d="M 158.31412,110.29116 L 166.44479,110.29116 L 169.00741,103.80974 L 160.91332,103.80974 L 158.31412,110.29116 z"
         id="path1308"
         style="fill:#0e2b57;fill-rule:nonzero;stroke:none" />
      <path
         d="M 169.962,110.29116 L 181.88637,110.29116 L 184.45509,103.80974 L 172.56436,103.80974 L 169.962,110.29116 z"
         id="path1312"
         style="fill:#0e2b57;fill-rule:nonzero;stroke:none" />
      <path
         d="M 233.75064,132.79649 L 260.91642,67.212697 L 252.74601,67.212697 L 225.62314,132.79649 L 233.75064,132.79649 z"
         id="path1316"
         style="fill:#0e2b57;fill-rule:nonzero;stroke:none" />
      <path
         d="M 262.77316,110.29116 C 266.17577,110.17205 287.32438,110.29116 287.32438,110.29116 L 290.30858,103.80974 C 290.30858,103.80974 268.35047,103.64786 262.46179,103.80974 C 256.57897,103.97164 251.94235,105.18117 249.17516,110.29116 C 246.60326,115.04989 248.10914,121.51297 256.69503,121.69013 C 265.39089,121.86727 269.1629,121.47632 272.23878,121.69013 C 275.32076,121.89783 275.67187,123.45252 275.10985,124.64678 C 274.39812,126.15259 272.08615,126.53745 270.13114,126.60464 C 264.44704,126.80012 240.412,126.60464 240.412,126.60464 L 237.79744,133.08299 C 237.79744,133.08299 262.15628,133.2357 270.17405,133.08299 C 278.19183,132.93942 281.00486,130.21797 282.49855,126.61381 C 285.08848,120.3523 281.49057,115.36145 275.3054,115.20567 C 269.1173,115.05601 263.46661,115.40419 258.47887,115.20567 C 256.76526,115.14152 255.74825,113.92587 256.60945,112.25819 C 257.18683,111.14638 259.36446,110.40722 262.77316,110.29116"
         id="path1320"
         style="fill:#0e2b57;fill-rule:nonzero;stroke:none" />
      <path
         d="M 136.57399,103.81128 C 115.93839,103.81128 106.70197,119.20234 104.00817,125.59822 C 101.13393,132.44004 94.258485,150.69305 94.258485,150.69305 L 102.38306,150.69305 C 102.38306,150.69305 108.76987,133.4205 111.68995,126.67947 C 113.45843,122.59576 120.88346,110.311 136.72053,110.311 L 145.40419,110.29269 C 145.40419,110.29269 141.68997,120.68676 139.92466,123.79002 C 138.84036,125.69902 135.69109,126.60616 133.50128,126.60616 L 116.02105,126.66726 L 113.4399,133.08453 L 133.87384,133.08453 C 141.17696,133.08453 144.65272,131.70088 146.87033,126.91772 C 149.27715,121.7222 156.38471,103.81128 156.38471,103.81128 L 136.57399,103.81128"
         id="path1324"
         style="fill:#0e2b57;fill-rule:nonzero;stroke:none" />
      <path
         d="M 67.724951,110.37791 C 67.724951,110.37791 82.040785,110.29238 88.720922,110.29238 C 94.878537,110.29238 96.497307,111.30643 95.333519,114.11952 L 79.915098,114.11952 C 71.377972,114.11952 67.22413,116.02546 64.71027,121.10797 C 62.94496,124.68465 64.548369,133.00175 73.659708,133.08421 C 75.730534,133.0995 79.82025,133.08421 82.407501,133.08421 C 85.516787,133.08421 88.378832,130.97364 88.378832,130.97364 L 87.596878,132.7971 L 95.721448,132.7971 C 95.721448,132.7971 100.36734,121.6272 102.40134,116.673 C 104.91203,110.55812 103.40933,103.88733 92.38906,103.81098 C 81.564346,103.7285 70.852768,103.92092 70.852768,103.92092 L 67.724951,110.37791 M 75.580824,126.53562 C 72.49909,126.53562 71.570352,124.93816 72.211862,123.39571 C 73.03356,121.41034 74.921027,120.76588 79.48133,120.62844 C 81.185683,120.5765 83.952879,120.60093 87.621261,120.61927 C 88.727018,120.62232 92.954252,119.88011 92.954252,119.88011 C 92.954252,119.88011 91.756816,122.60766 91.448375,123.4965 C 90.681782,125.72621 86.222424,126.45008 83.558854,126.53562 C 81.280288,126.59669 78.949786,126.53562 75.580824,126.53562"
         id="path1328"
         style="fill:#0e2b57;fill-rule:nonzero;stroke:none" />
      <path
         d="M 190.5776,110.40324 C 190.5776,110.40324 207.76157,110.31162 214.44147,110.31162 C 220.59908,110.31162 222.22419,111.32874 221.05723,114.13878 L 205.63881,114.13878 C 197.09876,114.13878 192.94784,116.04775 190.43106,121.13026 C 188.6655,124.70694 190.26915,133.02098 199.38342,133.10652 C 201.45132,133.12483 205.53811,133.10652 208.12512,133.10652 C 211.2405,133.10652 214.09645,130.99288 214.09645,130.99288 L 213.31742,132.81634 L 221.44224,132.81634 C 221.44224,132.81634 226.08495,121.64644 228.11896,116.69223 C 230.63282,110.58041 229.12694,103.90964 218.10985,103.83327 C 207.28513,103.75081 193.37844,103.94016 193.37844,103.94016 L 190.5776,110.40324 M 200.97464,126.55486 C 197.8929,126.55486 196.96124,124.9574 197.59665,123.41494 C 198.42128,121.42958 200.31191,120.78512 204.86905,120.64767 C 206.57047,120.59574 209.34694,120.62324 213.00898,120.63546 C 214.11474,120.6446 218.33905,119.90239 218.33905,119.90239 C 218.33905,119.90239 217.14478,122.62692 216.83926,123.52184 C 216.0756,125.74545 211.61014,126.46627 208.94974,126.55486 C 206.67117,126.61289 204.3375,126.55486 200.97464,126.55486"
         id="path1332"
         style="fill:#0e2b57;fill-rule:nonzero;stroke:none" />
      <path
         d="M 174.94461,158.04284 C 172.1957,155.11671 171.82922,149.9762 174.0344,143.45813 C 176.28541,136.78736 223.39334,23.549026 223.86685,22.412791 L 216.45987,22.412791 C 216.45987,22.412791 169.94151,134.02314 167.47057,140.66948 C 162.65985,153.62617 165.51873,160.19313 170.47306,169.29825 C 173.31048,174.50903 183.53659,190.2208 183.53659,190.2208 L 194.50492,174.29217 C 194.50492,174.29217 180.40292,163.84617 174.94461,158.04284"
         id="path1336"
         style="fill:#0e2b57;fill-rule:nonzero;stroke:none" />
      <path
         d="M 185.79322,65.313794 L 178.24578,65.313794 C 177.9922,64.541032 175.90626,58.123765 175.90626,58.123765 L 175.28011,60.06329 C 175.28011,60.06329 173.82617,64.541032 173.57259,65.313794 L 166.01906,65.313794 C 166.01906,65.313794 171.47421,69.26921 172.13084,69.757913 C 171.88043,70.530675 169.79741,76.935726 169.79741,76.935726 C 169.79741,76.935726 175.25256,72.97419 175.90626,72.494655 C 176.56898,72.97419 182.01804,76.938774 182.01804,76.938774 C 182.01804,76.938774 179.93795,70.530675 179.68437,69.757913 C 180.34124,69.26921 185.79322,65.313794 185.79322,65.313794"
         id="path1340"
         style="fill:#e41535;fill-rule:nonzero;stroke:none" />
      <path
         d="M 99.044327,65.313794 C 98.790747,64.541032 96.7109,58.123765 96.7109,58.123765 L 96.075486,60.06329 C 96.075486,60.06329 94.618618,64.541032 94.371133,65.313794 L 86.823702,65.313794 C 86.823702,65.313794 92.269829,69.26921 92.929382,69.757913 C 92.678971,70.530675 90.592785,76.935726 90.592785,76.935726 C 90.592785,76.935726 96.051103,72.97419 96.7109,72.494655 C 97.367527,72.97419 102.81951,76.938774 102.81951,76.938774 C 102.81951,76.938774 100.73332,70.530675 100.47999,69.757913 C 101.14271,69.26921 106.59176,65.313794 106.59176,65.313794 L 99.044327,65.313794"
         id="path1344"
         style="fill:#e41535;fill-rule:nonzero;stroke:none" />
      <path
         d="M 138.6453,65.313794 C 138.39196,64.541032 136.31187,58.123765 136.31187,58.123765 L 135.67353,60.06329 C 135.67353,60.06329 134.22276,64.541032 133.97211,65.313794 L 126.42785,65.313794 C 126.42785,65.313794 131.8708,69.26921 132.52743,69.757913 C 132.27995,70.530675 130.194,76.935726 130.194,76.935726 C 130.194,76.935726 135.64915,72.97419 136.30578,72.494655 C 136.9685,72.97419 142.41755,76.938774 142.41755,76.938774 C 142.41755,76.938774 140.33454,70.530675 140.08096,69.757913 C 140.74075,69.26921 146.19273,65.313794 146.19273,65.313794 L 138.6453,65.313794"
         id="path1348"
         style="fill:#e41535;fill-rule:nonzero;stroke:none" />
      <path
         d="M 75.255071,84.625747 L 77.780878,84.625747 L 77.224952,91.611132 L 77.249578,91.611132 L 82.530634,84.625747 L 84.537333,84.625747 L 77.570211,93.562896 L 75.108287,93.562896 L 75.649096,86.437018 L 75.627639,86.437018 L 70.196873,93.562896 L 67.780788,93.562896 L 68.382554,84.625747 L 70.538962,84.625747 L 69.934271,91.611132 L 69.958653,91.611132 L 75.255071,84.625747 z"
         id="path1352"
         style="fill:#e41535;fill-rule:nonzero;stroke:none" />
      <path
         d="M 89.649904,90.100743 L 89.445333,86.212502 L 85.935927,90.100743 L 89.649904,90.100743 z M 89.008638,84.627283 L 91.53152,84.627283 L 92.298113,93.564432 L 89.921772,93.564432 L 89.747679,91.560733 L 84.600972,91.560733 L 82.80811,93.564432 L 80.65487,93.564432 L 89.008638,84.627283 z"
         id="path1356"
         style="fill:#e41535;fill-rule:nonzero;stroke:none" />
      <path
         d="M 96.631412,90.766002 C 96.289322,91.831966 96.796239,92.476451 98.381607,92.476451 C 100.04012,92.476451 100.95325,91.758672 101.22512,91.114187 C 101.49699,90.469727 101.16417,90.173453 100.23567,90.035983 L 98.494497,89.788596 C 96.267866,89.46789 95.916754,88.46298 96.417576,87.290097 C 97.294137,85.222271 99.575867,84.397598 101.65889,84.397598 C 104.27053,84.397598 105.21121,85.491066 104.50557,87.299265 L 102.49888,87.299265 C 102.92045,86.138598 102.2943,85.717094 100.90766,85.717094 C 100.0767,85.717094 98.992397,86.126382 98.644207,86.941912 C 98.347957,87.635235 98.732717,87.919294 99.478097,88.02926 L 101.88809,88.392733 C 103.89162,88.689008 103.80603,89.938257 103.41225,90.866776 C 102.62713,92.711646 100.57776,93.798994 97.544547,93.798994 C 94.960707,93.798994 93.815206,92.687191 94.627639,90.766002 L 96.631412,90.766002 z"
         id="path1360"
         style="fill:#e41535;fill-rule:nonzero;stroke:none" />
      <path
         d="M 108.12836,84.625747 L 110.13213,84.625747 L 108.58651,88.266577 L 113.45233,88.266577 L 114.99771,84.625747 L 117.00148,84.625747 L 113.20485,93.562896 L 111.19815,93.562896 L 112.82911,89.72659 L 107.96353,89.72659 L 106.3355,93.562896 L 104.3288,93.562896 L 108.12836,84.625747 z"
         id="path1364"
         style="fill:#e41535;fill-rule:nonzero;stroke:none" />
      <path
         d="M 119.72552,84.625747 L 121.72929,84.625747 L 117.93266,93.562896 L 115.92596,93.562896 L 119.72552,84.625747 z"
         id="path1368"
         style="fill:#e41535;fill-rule:nonzero;stroke:none" />
      <path
         d="M 124.47893,84.625747 L 127.30099,84.625747 L 129.44521,91.482854 L 129.47276,91.482854 L 132.38674,84.625747 L 134.19496,84.625747 L 130.39516,93.562896 L 127.70111,93.562896 L 125.48058,86.583632 L 125.45327,86.583632 L 122.48735,93.562896 L 120.6823,93.562896 L 124.47893,84.625747 z"
         id="path1372"
         style="fill:#e41535;fill-rule:nonzero;stroke:none" />
      <path
         d="M 143.24193,87.511541 C 143.71228,86.262292 142.62798,85.782757 141.64145,85.782757 C 139.75984,85.782757 137.60977,86.735731 136.62007,89.057065 C 135.91444,90.715603 136.11608,92.340517 138.86206,92.340517 C 139.64377,92.340517 140.3677,92.239743 141.48882,91.931253 L 142.21274,90.22078 L 139.35679,90.22078 L 139.94319,88.837157 L 144.76,88.837157 L 142.98543,93.006385 C 141.47955,93.550071 139.41775,93.80053 138.11985,93.80053 C 134.78747,93.80053 133.15626,92.316085 134.53388,89.072329 C 135.67012,86.396689 138.4161,84.396062 141.93161,84.396062 C 144.62858,84.396062 146.21395,85.419283 145.32202,87.511541 L 143.24193,87.511541 z"
         id="path1376"
         style="fill:#e41535;fill-rule:nonzero;stroke:none" />
      <path
         d="M 156.93016,84.625747 L 156.30718,86.088809 L 152.90457,86.088809 L 149.73091,93.562896 L 147.72421,93.562896 L 150.90079,86.088809 L 147.49818,86.088809 L 148.11824,84.625747 L 156.93016,84.625747 z"
         id="path1380"
         style="fill:#e41535;fill-rule:nonzero;stroke:none" />
      <path
         d="M 160.01579,92.339298 C 161.95836,92.339298 163.62907,91.200015 164.52391,89.095541 C 165.41583,86.991067 164.71337,85.851784 162.7708,85.851784 C 160.84041,85.851784 159.15752,86.991067 158.2595,89.095541 C 157.36441,91.200015 158.08541,92.339298 160.01579,92.339298 M 163.39085,84.394843 C 166.68642,84.394843 167.93262,85.967846 166.60401,89.095541 C 165.27222,92.226284 162.68838,93.799311 159.39257,93.799311 C 156.09992,93.799311 154.8508,92.226284 156.18258,89.095541 C 157.51412,85.967846 160.0982,84.394843 163.39085,84.394843"
         id="path1384"
         style="fill:#e41535;fill-rule:nonzero;stroke:none" />
      <path
         d="M 170.72981,84.625747 L 173.55211,84.625747 L 175.6995,91.482854 L 175.72388,91.482854 L 178.64078,84.625747 L 180.44584,84.625747 L 176.6492,93.562896 L 173.9493,93.562896 L 171.73486,86.583632 L 171.70731,86.583632 L 168.7414,93.562896 L 166.93342,93.562896 L 170.72981,84.625747 z"
         id="path1388"
         style="fill:#e41535;fill-rule:nonzero;stroke:none" />
      <path
         d="M 208.35358,162.13541 L 201.36208,170.72739 L 222.65113,170.72739 L 229.62435,162.13541 L 208.35358,162.13541 z"
         id="path1392"
         style="fill:#e41535;fill-rule:nonzero;stroke:none" />
    </g>
  </g>
</svg>
