<?xml version="1.0" encoding="UTF-8" standalone="no"?>
<svg
   xmlns:dc="http://purl.org/dc/elements/1.1/"
   xmlns:cc="http://creativecommons.org/ns#"
   xmlns:rdf="http://www.w3.org/1999/02/22-rdf-syntax-ns#"
   xmlns:svg="http://www.w3.org/2000/svg"
   xmlns="http://www.w3.org/2000/svg"
   xmlns:sodipodi="http://sodipodi.sourceforge.net/DTD/sodipodi-0.dtd"
   xmlns:inkscape="http://www.inkscape.org/namespaces/inkscape"
   viewBox="0 0 200.00247 280.51141"
   version="1.1"
   id="svg286"
   sodipodi:docname="Chicago_White_Sox_logo.svg"
   width="200.00247"
   height="280.51141"
   style="clip-rule:evenodd;fill-rule:evenodd"
   inkscape:version="0.92.4 (5da689c313, 2019-01-14)">
  <metadata
     id="metadata292">
    <rdf:RDF>
      <cc:Work
         rdf:about="">
        <dc:format>image/svg+xml</dc:format>
        <dc:type
           rdf:resource="http://purl.org/dc/dcmitype/StillImage" />
      </cc:Work>
    </rdf:RDF>
  </metadata>
  <defs
     id="defs290" />
  <sodipodi:namedview
     pagecolor="#ffffff"
     bordercolor="#666666"
     borderopacity="1"
     objecttolerance="10"
     gridtolerance="10"
     guidetolerance="10"
     inkscape:pageopacity="0"
     inkscape:pageshadow="2"
     inkscape:window-width="640"
     inkscape:window-height="480"
     id="namedview288"
     showgrid="false"
     inkscape:zoom="0.53571429"
     inkscape:cx="67.333305"
     inkscape:cy="140.2554"
     inkscape:window-x="0"
     inkscape:window-y="0"
     inkscape:window-maximized="0"
     inkscape:current-layer="svg286" />
  <path
     d="m 30.696972,23.433 c -7.262,7.714 -14.258,23.024 -15.262,33.404 -0.326,3.318 -0.483,6.397 -0.483,9.284 0,10.404 2.13,18.37 6.768,26.133 5.826,9.715 15.046,17.705 26.666,23.097 10.963,5.085 26.749,12.171 28.633,12.941 0.646,0.258 1.483,0.652 2.376,1.089 -3.62,2.623 -5.749,4.162 -7.467,5.417 -9.77,-2.229 -22.058,-0.517 -24.914,0.16 -11.607,2.745 -22.251,7.978 -29.977,14.725 -7.8709999,6.883 -13.7679999,14.786 -15.7689999,21.153 -2.23199996,7.075 -1.51499996,12.103 2.133,14.935 5.365,4.18 12.2969999,-0.098 14.5619999,-1.515 4.673,-2.955 13.27,-8.359 24.101,-9.959 9.425,-1.404 22.063,-0.118 27.87,3.676 v 10.268 c -1.398,1.281 -2.888,2.641 -2.888,2.641 -1.464,1.466 -2.241,3.465 -2.241,5.54 0,0.967 0.166,1.952 0.517,2.9 0.985,2.64 3.201,3.755 3.201,3.755 18.739,11.413 18.733,11.413 31.341,19.103 l -0.695,0.141 c -1.662,0.733 -5.515,3.145 -5.515,9.881 v 27.425 l 16.300998,15.575 c 3.608,3.62 7.117,4.211 9.413,4.057 2.856,-0.172 5.442,-1.564 7.271,-3.921 0,0 10.853,-13.925 17.575,-22.549 4.981,7.707 12.836,19.847 12.836,19.847 -0.085,-0.136 0.185,0.424 0.185,0.424 0.91,1.958 2.813,6.02 7.258,7.172 1.971,0.512 5.097,0.573 8.724,-2.063 4.875,-3.545 16.209,-12.386 18.153,-14.332 l 0.358,-0.363 c 1.342,-1.317 3.386,-3.336 3.386,-6.654 v -26.182 c 0,-2.813 -1.509,-6.372 -4.974,-7.764 -2.525,-1.016 -5.418,-1.016 -8.878,1.798 -1.533,1.256 -4.167,3.158 -8.004,6.059 -2.222,-3.546 -3.403,-5.442 -5.085,-8.121 3.294,-4.155 11.136,-14.036 15.513,-19.563 0.566,0.449 1.711,1.348 1.711,1.348 l 0.192,0.129 c 4.61,3.072 8.125,1.933 9.807,0.979 4.579,-2.587 4.672,-8.349 4.592,-10.048 l 0.013,-21.989 -13.857,-14.332 c -2.007,-2.265 -4.807,-3.429 -7.688,-3.19 -2.944,0.241 -5.665,1.903 -7.252,4.446 -0.746,1.071 -7.332,9.35 -14.171,17.871 v -28.774 l 1.724,-1.729 c 1.238,-1.078 4.051,-4.555 4.051,-8.619 0,-0.974 -0.167,-1.976 -0.548,-2.992 -0.806,-2.13 -2.715,-4.537 -6.957,-5.534 1.244,-4.814 1.743,-9.468 1.792,-13.058 l 0.013,-1.01 c 0,-9.604 -2.222,-17.699 -6.581,-24.083 -5.208,-7.591 -9.229,-10.139 -14.793,-13.674 l -1.44,-0.91 c -6.483,-4.137 -40.483998,-22.008 -41.930998,-22.773 -0.123,-0.062 -13.039,-6.458 -13.039,-6.458 -8.526,-4.315 -9.135,-7.338 -9.135,-8.975 l 0.012,-0.29 c 0.192,-0.991 2.512,-4.575 7.381,-4.575 4.993,0 8.496,0.16 15.07,2.363 10.408998,3.49 10.704998,7.733 10.711998,9.302 -0.03,0.381 -0.345,4.777 -0.345,4.777 l 21.65,14.793 32.449,-41.665 -26.348,-17.625 -3.484,3.497 c -1.176,1.169 -1.909,1.834 -2.339,2.161 l -1.877,-0.32 -5.812,-2.204 C 108.11097,6.194 92.799972,0 78.863972,0 c -24.361,0 -37.153,11.58 -48.163,23.431"
     id="path280"
     inkscape:connector-curvature="0"
     style="fill:#ffffff" />
  <path
     d="m 33.955972,26.585 c -6.565,6.981 -13.124,21.313 -14.029,30.664 -0.299,3.133 -0.463,6.045 -0.463,8.76 0,9.548 1.921,16.806 6.107,23.794 5.34,8.907 13.851,16.258 24.618,21.258 11.456,5.312 26.792,12.182 28.473,12.873 3.139,1.274 7.899,3.866 9.154,5.208 -1.643,1.189 -14.196,10.293 -14.997,10.872 -8.255,-2.679 -21.239,-1.183 -24.921,-0.309 -10.884,2.574 -20.819,7.437 -27.979,13.69 -7.151,6.249 -12.6599999,13.538 -14.3879999,19.023 -1.564,4.986 -1.398,8.261 0.517,9.745 1.844,1.434 4.8329999,0.85 9.1309999,-1.81 4.589,-2.899 14.117,-8.884 25.978,-10.65 8.779,-1.311 17.619,-0.296 24.237,1.348 0,0 5.11,1.577 9.155,4.298 v 15.18 c -0.702,0.629 -4.296,3.921 -4.296,3.921 -0.597,0.591 -0.844,1.391 -0.844,2.155 0,0.443 0.086,0.874 0.228,1.242 0.326,0.887 1.194,1.337 1.194,1.337 l 44.673998,27.229 c 0,0 10.62,-8.102 12.466,-9.512 0.72,1.212 1.643,2.745 2.149,3.588 -0.967,1.189 -12.411,15.174 -13.821,16.892 -1.613,-1.428 -9.985,-8.896 -9.985,-8.896 -2.487,-2.29 -4.426,-1.951 -5.357,-1.545 -1.686998,0.74 -2.652998,2.747 -2.652998,5.504 v 25.431 l 14.922998,14.264 c 2.363,2.359 4.426,2.757 5.749,2.672 1.471,-0.092 2.819,-0.831 3.804,-2.086 0,0 17.244,-22.144 21.744,-27.913 1.698,2.623 16.523,25.554 16.523,25.554 l 0.499,0.998 c 0.745,1.587 1.86,3.976 4.13,4.568 1.435,0.368 3.017,-0.069 4.722,-1.306 4.85,-3.539 16.024,-12.287 17.612,-13.882 l 0.368,-0.365 c 1.096,-1.083 1.965,-1.945 1.965,-3.269 v -26.231 c 0,-1.238 -0.697,-2.795 -2.05,-3.367 -0.905,-0.388 -2.382,-0.473 -4.236,1.311 0.086,-0.074 -9,6.791 -12.085,9.123 -1.193,-1.909 -8.883,-14.164 -9.676,-15.433 1.009,-1.256 19.219,-24.219 20.617,-25.974 1.379,1.09 5.27,4.143 5.27,4.143 1.982,1.317 3.595,1.587 4.888,0.856 2.31,-1.306 2.198,-5.234 2.173,-5.676 V 175.54 l -12.657,-13.107 c -1.022,-1.151 -2.34,-1.725 -3.73,-1.607 -1.435,0.117 -2.82,0.978 -3.608,2.235 -0.671,1.065 -10.459,13.297 -17.342,21.867 -1.791,-1.429 -4.328,-2.457 -5.7,-2.911 V 147.66 c 0.456,-0.456 3.361,-3.405 3.361,-3.405 0.473,-0.417 2.412,-2.659 2.412,-5.004 0,-0.45 -0.062,-0.899 -0.228,-1.342 -0.739,-1.951 -3.004,-2.936 -6.735,-2.936 -0.062,0 -1.232,0.104 -2.363,0.215 2.745,-6.224 3.545,-12.915 3.614,-17.656 0.012,-0.314 0.019,-0.622 0.019,-0.936 0,-8.637 -1.939,-15.839 -5.769,-21.424 -4.648,-6.785 -7.942,-8.884 -13.415,-12.355 l -1.459,-0.929 c -6.328,-4.032 -40.211998,-21.842 -41.651998,-22.594 -0.03,-0.019 -12.958,-6.421 -12.958,-6.421 -10.188,-5.159 -11.814,-9.628 -11.814,-13.365 l 0.013,-0.505 c 0.104,-3.079 4.513,-9.074 12.183,-9.074 5.331,0 9.357,0.185 16.61,2.61 9.424998,3.165 14.003998,7.744 14.003998,14.011 -0.006,0.006 -0.16,2.229 -0.16,2.229 l 15.705,10.731 26.576,-34.118 -18.851,-12.608 -0.726,0.72 c -4.051,4.057 -4.212,4.019 -8.546,3.158 -1.133,-0.228 -3.571,-1.219 -6.667,-2.468 -8.839,-3.571 -23.638998,-9.554 -36.669998,-9.554 -22.483,0 -33.995,10.379 -44.737,21.94 m 39.88,115.765 16.898,-12.269 v -0.628 c -0.196,-2.851 -8.285,-6.599 -11.136,-7.831 -1.607,-0.69 -17.175,-7.627 -28.362,-12.823 -10.311,-4.784 -18.454,-11.801 -23.532,-20.278 -3.706,-6.199 -6.919,-14.239 -5.297,-31.039 0.844,-8.741 7.215,-22.661 13.365,-29.198 10.367,-11.149 21.435,-21.153 42.921,-21.153 12.546,0 27.067998,5.867 35.747998,9.37 3.331,1.355 5.75,2.327 7.117,2.598 4.758,0.954 6.02,0.782 10.035,-3.128 1.391,0.929 13.118,8.779 14.959,10.004 -1.489,1.914 -22.193,28.49 -23.497,30.178 -1.607,-1.096 -11.599,-7.923 -12.602,-8.613 l 0.062,-0.899 c 0,-7.45 -5.283,-12.958 -15.697998,-16.449 -7.59,-2.548 -11.999,-2.745 -17.397,-2.745 -9.363,0 -14.529,7.474 -14.664,11.469 -0.247,6.458 3.829,11.451 13.169,16.184 0.019,0 12.947,6.408 12.947,6.408 0.326,0.172 35.206998,18.492 41.436998,22.476 l 1.471,0.935 c 5.369,3.416 8.336,5.288 12.707,11.66 3.65,5.35 5.448,12.387 5.306,20.913 -0.074,4.98 -0.867,12.232 -4.167,18.549 l -1.065,2.025 6.58,-0.616 c 2.363,0.013 3.97,0.492 4.285,1.336 0.414,1.096 -0.972,3.145 -1.489,3.601 l -4.298,4.377 0.086,0.4 v 36.684 l 0.893,0.271 c 1.988,0.579 5.491,1.994 6.452,3.318 l 0.954,1.311 1.016,-1.262 c 1.774,-2.197 17.312,-21.509 18.315,-23.099 0.381,-0.603 1.052,-1.022 1.712,-1.083 0.603,-0.043 1.163,0.216 1.668,0.782 0,0 10.293,10.669 12.036,12.46 v 19.38 l 0.006,0.296 c 0,1.212 -0.296,2.8 -0.917,3.151 -0.394,0.221 -1.225,-0.043 -2.204,-0.702 0,-0.006 -7.146,-5.615 -7.146,-5.615 l -23.247,29.297 12.049,19.214 14.362,-10.853 c 0.893,-0.856 1.435,-1.01 1.662,-0.917 0.296,0.129 0.535,0.702 0.535,1.083 v 26.231 c 0,0.29 -0.572,0.851 -1.225,1.502 l -0.388,0.382 c -1.391,1.391 -12.232,9.917 -17.322,13.616 -1.072,0.776 -1.958,1.085 -2.641,0.912 -1.127,-0.296 -1.916,-1.982 -2.487,-3.214 l -0.665,-1.292 -18.419,-28.497 -23.905,30.682 c -0.381,0.48 -1.027,1.072 -1.994,1.127 -1.157,0.074 -2.481,-0.603 -3.829,-1.945 0,0 -13.457,-12.867 -14.202,-13.567 v -24.374 c 0,-2.001 0.609,-2.979 1.169,-3.232 0.628,-0.271 1.637,0.147 2.691,1.114 0.019,0.019 11.931,10.638 11.931,10.638 l 16.579,-20.254 -4.488,-7.474 c 0,0 -12.103,9.24 -13.31,10.171 -1.41,-0.856 -43.308998,-26.392 -43.375998,-26.434 -0.043,-0.099 -0.086,-0.222 -0.086,-0.369 0,-0.167 0.043,-0.326 0.111,-0.401 l 5.012,-4.568 0.019,-0.56 v -17.12 l -0.579,-0.363 c -3.38,-2.167 -6.113,-3.755 -10.989,-4.987 -8.225,-2.08 -17.921,-2.444 -24.674,-1.366 -12.362,1.971 -22.214,8.02 -26.936,11.006 -4.5469999,2.813 -5.9649999,2.204 -6.2949999,1.952 -0.686,-0.542 -1.016,-2.703 0.345,-7.037 1.573,-4.998 6.9289999,-12.022 13.6379999,-17.896 6.867,-5.996 16.421,-10.663 26.924,-13.143 4.125,-0.978 16.953,-2.253 24.205,0.388 l 0.628,0.221 0.524,-0.376 z"
     id="path282"
     inkscape:connector-curvature="0"
     style="fill:#c4cdd3" />
  <path
     d="m 190.90697,272.332 h -1.872 v 5.104 h -1.274 v -5.104 h -1.86 v -1.108 h 5.005 m 8.49,6.212 h -1.261 v -4.938 h -0.03 l -1.792,4.938 h -1.231 l -1.736,-4.938 h -0.03 v 4.938 h -1.268 v -6.212 h 2.197 l 1.447,4.058 h 0.03 l 1.489,-4.058 h 2.184 v 6.212 z m -8.648,-81.121 v -18.634 l -11.655,-10.478 -32.276,40.07 -4.531,-7.232 c 3.927,-2.937 9.001,-6.704 9.568,-6.988 0.923,-0.468 3.25,-1.86 4.419,-1.86 1.053,0 -1.636,-4.66 -9.32,-4.66 V 145.3 l 4.426,-4.894 c 0,0 -5.387,0.85 -7.929,0.074 -0.536,-0.166 -1.435,-0.597 -2.543,-1.169 1.447,-2.308 2.747,-4.925 3.719,-7.978 5.283,-16.708 1.822,-32.129 -10.718,-41.634 -8.797,-6.667 -44.951998,-24.963 -44.951998,-24.963 0,0 -21.873,-10.718 -24.23,-13.076 -1.687,-1.687 -5.116,-4.309 -5.116,-12.577 0,-4.931 5.485,-10.367 7.848,-11.481 3.793,-1.798 5.029,-2.647 12.694,-2.758 4.34,-0.061 8.373,0.979 8.914,1.04 4.771,0.505 16.066998,4.23 21.902998,12.116 2.222,2.229 2.666,8.766 2.666,8.766 l 9.092,5.824 19.805,-25.857 -10.725,-7.221 c -3.028,3.263 -8.845,3.49 -11.174,2.333 -2.333,-1.169 -22.327998,-8.453 -25.165998,-9.357 -5.357,-1.711 -17.003,-2.992 -23.289,-2.063 -6.292,0.936 -16.615,2.845 -24.699,11.42 -9.425,10.009 -9.548,18.049 -9.548,22.359 0,6.759 1.748,15.692 9.314,23.258 10.915,10.908 27.487,17.742 31.218,19.804 6.629,3.663 27.498998,14.584 30.509998,16.338 12.823,7.456 17.711,15.379 16.32,25.394 -0.074,0.492 -0.228,0.954 -0.339,1.422 -5.615,-3.299 -13.506,-8.274 -16.677,-11.438 0,0 -1.914,2.037 -3.145,3.256 l -9.294998,6.962 c 1.096,-4.519 1.225,-12.244 1.034,-13.014 -0.241,-0.935 -0.935,-8.391 -7.454,-13.045 -4.426,-3.164 -14.326,-9.086 -22.827,-13.279 -3.651,-1.803 -15.526,-8.982 -21.202,-13.71 0,0 -9.779,-9.116 -11.294,-14.713 -2.918,-6.408 -3.035,-21.546 -1.517,-23.061 0,0 -3.725,4.192 -6.288,12.583 -1.249,4.094 -2.096,9.431 -2.096,13.045 0,6.052 1.044,16.653 7.693,25.622 2.923,3.953 7.513,8.447 12.365,11.66 5.941,3.915 11.918,6.218 12.319,6.507 1.632,1.164 17.009,7.652 18.407,8.354 1.391,0.701 8.44,3.976 9.936,4.777 5.312,2.838 8.046,4.66 9.721,9.18 l -15.94,11.937 c 0,0 0.701,1.274 0.701,3.256 v 1.508 c -2.148,-0.707 -4.334,-1.33 -6.519,-1.705 -10.478,-1.785 -16.855,-1.675 -25.153,0.375 -9.204,2.272 -18.869,5.984 -27.953,15.071 C 9.5119721,170.803 9.6379721,177.68 9.6379721,177.68 l 10.2439999,-6.045 c 8.572,-4.821 19.851,-7.695 27.842,-7.695 19.041,0 28.921,5.497 31.673,8.557 v 18.462 c 0,3.67 -1.101,4.13 -1.92,4.833 -0.314,0.27 -0.579,0.289 -1.687,1.047 0,0 1.404,0.522 1.748,0.874 0.929,0.695 37.194998,22.6 37.194998,22.6 l 14.042,-10.288 6.933,11.044 -19.269,23.93 -13.279,-12.116 v 22.6 l 15.144,13.981 26.73,-33.564 21.946,34.955 17.711,-14.202 v -22.366 l -14.208,10.712 -14.399,-22.962 26.04,-32.707 m -81.879,-43.328 8.273,-6.058 c 2.248,1.871 4.895,3.571 7.529,5.085 l -0.314,0.27 c 0,0 -9.536,8.163 -15.489,9 v -8.297 z m 14.486,53.108 -14.486,-8.845 v -21.947 c 6.069,-1.076 20.874,-8.131 28.533,-15.796 0.098,1.446 0.068,16.11 0.043,26.046 l -8.896,-14.166 -13.544,9.628 v 17.237 l 7.492,-4.968 5.615,8.945 -4.758,3.866 z"
     id="path284"
     inkscape:connector-curvature="0"
     style="fill:#231f20" />
</svg>
