<?xml version="1.0" encoding="utf-8"?>
<!-- Generator: Adobe Illustrator 24.3.0, SVG Export Plug-In . SVG Version: 6.00 Build 0)  -->
<svg version="1.0" id="katman_1" xmlns="http://www.w3.org/2000/svg" xmlns:xlink="http://www.w3.org/1999/xlink" x="0px" y="0px"
	 viewBox="0 0 841.89 595.28" style="enable-background:new 0 0 841.89 595.28;" xml:space="preserve">
<style type="text/css">
	.st0{fill:#015B9D;}
</style>
<g>
	<path class="st0" d="M519.09,321.68v47.09l-20.86,0.02c-0.96-4.09-45.27-189.29-45.27-189.29h-66.42c0,0-44.23,185.21-45.19,189.3
		H325.6V112.08h34.74V67.51L247.36,67.8v44.28h32.73v258.89h-34.51v44.99h84.48c-1.4,5.83-14.47,60.41-15.31,64.09h-34.33v47.32
		l117.3-0.24v-47.08h-33.02c1.26-5.81,13.8-60.33,14.61-64.09h80.93c0.9,3.76,13.39,58.28,14.67,64.09h-33.05v47.08l117.3,0.24
		l-0.03-47.32h-34.3c-0.84-3.68-13.92-58.26-15.28-64.09h56.8v-94.28L519.09,321.68L519.09,321.68z M390.07,368.79
		c1.39-5.89,26.31-114.56,29.69-129.52c3.44,14.97,28.32,123.63,29.67,129.52L390.07,368.79L390.07,368.79z M591.09,512.34
		c0-3.21-1.89-3.76-4.67-3.76h-5.86v12.11h2.51v-4.81h2.1l2.8,4.81h2.77l-2.92-4.81C589.96,515.69,591.09,514.53,591.09,512.34
		L591.09,512.34z M586.45,513.71h-3.38v-2.92h2.8c1.2,0,2.71,0,2.71,1.34C588.58,513.39,587.82,513.71,586.45,513.71z"/>
	<path class="st0" d="M585.4,503.09c-6.48,0-11.52,5.19-11.52,11.64c0,6.39,5.05,11.52,11.52,11.52c6.45,0,11.52-5.13,11.52-11.52
		C596.92,508.29,591.84,503.09,585.4,503.09L585.4,503.09z M585.4,523.81c-4.99,0-8.99-3.91-8.99-9.07c0-5.22,4-9.13,8.99-9.13
		c4.96,0,9.02,3.91,9.02,9.13C594.42,519.9,590.35,523.81,585.4,523.81z"/>
</g>
</svg>
