<?xml version="1.0" encoding="UTF-8" standalone="no"?>
<svg
   xmlns:dc="http://purl.org/dc/elements/1.1/"
   xmlns:cc="http://creativecommons.org/ns#"
   xmlns:rdf="http://www.w3.org/1999/02/22-rdf-syntax-ns#"
   xmlns:svg="http://www.w3.org/2000/svg"
   xmlns="http://www.w3.org/2000/svg"
   xmlns:sodipodi="http://sodipodi.sourceforge.net/DTD/sodipodi-0.dtd"
   xmlns:inkscape="http://www.inkscape.org/namespaces/inkscape"
   viewBox="0 0 159.3 156"
   version="1.1"
   id="svg38"
   sodipodi:docname="Minnesota_Twins_New_Logo.svg"
   inkscape:version="1.0.1 (3bc2e813f5, 2020-09-07)">
  <metadata
     id="metadata44">
    <rdf:RDF>
      <cc:Work
         rdf:about="">
        <dc:format>image/svg+xml</dc:format>
        <dc:type
           rdf:resource="http://purl.org/dc/dcmitype/StillImage" />
        <dc:title>Minnesota Twins TC logo</dc:title>
      </cc:Work>
    </rdf:RDF>
  </metadata>
  <defs
     id="defs42" />
  <sodipodi:namedview
     pagecolor="#ffffff"
     bordercolor="#666666"
     borderopacity="1"
     objecttolerance="10"
     gridtolerance="10"
     guidetolerance="10"
     inkscape:pageopacity="0"
     inkscape:pageshadow="2"
     inkscape:window-width="1920"
     inkscape:window-height="1046"
     id="namedview40"
     showgrid="false"
     inkscape:zoom="3.825629"
     inkscape:cx="97.43877"
     inkscape:cy="89.311648"
     inkscape:window-x="-11"
     inkscape:window-y="-11"
     inkscape:window-maximized="1"
     inkscape:current-layer="svg38"
     inkscape:document-rotation="0" />
  <title
     id="title28">Minnesota Twins TC logo</title>
  <path
     fill="#091f40"
     d="M86.9 130.9c-3.8 0-7.5-.2-11-.6-.4 8.6-2.5 16.9-5.5 25.7h32c-3-8.8-5.1-17-5.5-25.6-3.3.3-6.6.5-10 .5"
     id="path30"
     style="fill:#091f40;fill-opacity:1" />
  <path
     fill="#e31e34"
     d="M96.8 113c-3.2.4-6.6.7-10.1.7-3.7 0-7.3-.2-10.6-.7-10.7-1.5-19.4-5.1-25.4-9.9-6.4-5.1-10.5-11.8-10.5-19.2 0-7.4 4-14.1 10.5-19.2 6.1-4.8 14.8-8.5 25.5-9.9V37.4C55.9 39.5 41 47.8 26.5 62.3c-6 6-12.9 14-21.1 21.7 8.2 7.6 15.1 15.7 21.1 21.7 14.4 14.4 29.3 22.7 49.5 24.9 3.5.4 7.2.6 11 .6 3.4 0 6.8-.2 10-.5 30.2-2.8 51.4-18.2 57.1-37.4l-22.8-.1c-5.7 9.9-17.8 17.6-34.5 19.8"
     id="path32" />
  <path
     fill="#e31e34"
     d="M96.8 54.5c16.7 2.2 28.9 9.9 34.4 20.1l22.8-.1c-5.8-19.3-27-34.7-57.3-37.4.1 5.7.1 11.5.1 17.4"
     id="path34" />
  <path
     fill="#091f40"
     d="m115.4 138.4-.8 2.3h-.1l-1.4-4h-2.2v6.2h1.3V138l1.7 4.9h1.2l.3-.8 1.5-4.1h.1v4.9h1.2v-6.2H116zm-10.5-.6h1.8v5.1h1.3v-5.1h1.8v-1.1h-4.9zM76.1 54.6c0 19.5.1 39.6 0 58.4 3.3.5 6.9.7 10.6.7 3.5 0 6.9-.2 10.1-.7V31.6c0-6.1.1-10.8.1-15 19.4 1 37.6 7.2 53.8 18L146.6 9C129.7 3 108 0 86.3 0 64.8 0 43.1 3 26.2 9l-4.1 25.8c16.2-10.8 34.5-17 53.8-18 .1 4.1.1 8.9.1 15 0 7.4 0 14.9.1 22.6v.2"
     id="path36"
     style="fill:#091f40;fill-opacity:1" />
</svg>
