<?xml version="1.0" encoding="UTF-8"?><svg id="Layer_1" xmlns="http://www.w3.org/2000/svg" viewBox="0 0 185.96 245.83"><defs><style>.cls-1{fill:#fff;}.cls-1,.cls-2{fill-rule:evenodd;}.cls-2,.cls-3{fill:#e81828;}</style></defs><path class="cls-3" d="M123.94,227.38h-3.36v9.16h-2.28v-9.16h-3.36v-2h9v2ZM139.22,236.54h-2.28v-8.88h-.05l-3.24,8.88h-2.2l-3.12-8.88h-.06v8.88h-2.27v-11.16h3.94l2.6,7.29h.06l2.7-7.29h3.93v11.15h0Z"/><path class="cls-1" d="M185.58,57.73c-1.61-24.37-22.27-42.86-41.6-50.1-6.24-1.97-12.67-3.99-18.91-5.32-20.55-4.45-43.04-2.01-61.57,3.29C38.08,12.81,13.53,32.71,3.37,58.65c-4.03,10.63-5,24.97.18,36.47,6.2,13.3,19.98,18.23,31.88,18.23,13.17,0,21.97-9.75,26.99-18.57v52.43l-.28,35.54c-2.05,2.57-4.51,5.18-6.51,7.93-4.59,7.06-10.79,16.7-11.18,28.37,0,3.45.2,9.38,3.32,14.31,4.24,7.6,12.42,10.86,18.45,11.99,7.6,1.2,15.17-.04,21.45-2.26,13.96-5.29,26.44-18.52,28.8-34.39l.1-.56.29-67.61c5.25-2.07,10.55-4.14,15.78-6.44,6.68-2.98,13.44-6.36,19.86-10.58,23.06-13.57,35.85-38.53,33.08-65.79h0ZM138.92,74.86c-1.45,7.25-9,14.35-17.55,17.28-1.41.51-2.88.9-4.45,1.23l.24-45.03c8.84-.15,15.66,2.48,18.93,7.69l2,4.77c.52,2.45,1.03,4.95,1.23,7.46.24,2.48.09,4.8-.4,6.6Z"/><path class="cls-2" d="M179.77,58.15c-1.33-21.69-20.45-38.54-37.65-44.99l-.11-.04c-5.28-1.67-11.85-3.79-18.17-5.11-23.55-5.11-46.92-.19-58.75,3.19-25.19,7.15-47.3,26.6-56.31,49.55-3.98,10.48-3.96,23,.05,31.96,4.35,9.29,14.28,14.86,26.59,14.86,9.93,0,19.05-7.69,24.39-20.59.08-.19.61-1.89.61-1.89.87-2.73,1.75-5.53,1.75-8.72v-2.19h-2.18c-1.42,0-3.01-.56-4.52-1.08l-1.08-.37c-.48-.37-1.04-1.54-1.04-2.33,1.14-6.64,6.61-13.23,14.88-18.14v95.06s-.31,35.93-.32,37.38c-.61.79-3.44,4.29-3.44,4.29l-4.01,4.99c-4.43,6.75-9.83,15.08-10.2,25.17h0c0,3.55.3,7.91,2.56,11.35,2.4,4.49,7.66,7.88,14.36,9.16,5.86.91,12.22.22,18.47-2,13.08-4.95,23.13-16.91,25.07-29.78.04-.31.3-64.89.33-70.98.11-.19.13-.21.25-.43.71-.26,1.71-.66,1.71-.66,12.31-4.77,25.03-9.73,36.48-17.25,19.26-11.27,30.65-31.4,30.65-53.58,0-2.28-.12-4.54-.36-6.81h0ZM144.61,76.12c-2.11,10.55-12.21,18.38-21.31,21.5-3.85,1.38-8.09,2-12.25,2.57.04-4.65.32-57.32.32-57.36.4,0,3.63-.24,3.63-.24,7.23-.42,20.25.46,26.32,10.86.16.37,2.44,5.78,2.44,5.78.68,3.4,1.52,7.34,1.52,11.26,0,1.91-.19,3.78-.67,5.62Z"/></svg>